<?xml version="1.0" encoding="UTF-8"?>
<svg xmlns="http://www.w3.org/2000/svg" version="1.1" viewBox="0 0 5669.29 1700.79">
  <defs>
    <style>
      .cls-1 {
        fill: #626a6e;
      }

      .cls-1, .cls-2 {
        fill-rule: evenodd;
      }

      .cls-2 {
        fill: #ec831a;
      }
    </style>
  </defs>
  <!-- Generator: Adobe Illustrator 28.7.3, SVG Export Plug-In . SVG Version: 1.2.0 Build 164)  -->
  <g>
    <g id="_레이어_1" data-name="레이어_1">
      <g>
        <path class="cls-2" d="M4642.91,1169.17h-131.46v-378.26c0-52.89-10.68-89.56-91.64-89.56h-365.96v467.82h-121.9v-549.41h474.7c114.9,0,236.26-1.79,236.26,171.26"/>
        <path class="cls-2" d="M877.15,627.64H293.05c-68.6,0-124.65,56.3-124.65,125.16v291.73c0,68.57,56.05,124.64,124.65,124.64h584.1v-82.06H358.98c-34.16,0-62.08-28-62.08-62v-252.81c0-34.4,27.92-62.24,62.08-62.24h518.17"/>
        <path class="cls-2" d="M3230.41,1081.79l347.19,1.66c31.7,0,57.68-25.9,57.68-57.59v-91.32l-404.87-1.74c-31.65-.15-57.54,25.96-57.54,57.66v33.67c0,31.65,25.79,57.42,57.54,57.66M3640.45,1169.17h-462.41c-72.13,0-130.89-59-130.89-130.95v-67.31c.76-74.63,63.98-122.55,131.71-122.22h456.42v-82.44c0-36.52-29.8-66.32-66.36-66.32h-472.27v-82.31h543.8c72.08,0,130.92,58.98,130.92,131.13v289.48c0,71.95-58.85,130.95-130.92,130.95Z"/>
        <path class="cls-2" d="M1212.59,1081.79l347.36,1.66c31.52,0,57.61-25.9,57.61-57.59v-91.32l-404.97-1.74c-31.7-.15-57.64,25.96-57.64,57.66v33.67c0,31.65,25.95,57.42,57.64,57.66M1622.81,1169.17h-462.6c-71.96,0-130.96-59-130.96-130.95v-67.31c.79-74.63,64.15-122.55,131.71-122.22h456.61v-82.44c0-36.52-29.96-66.32-66.41-66.32h-472.27v-82.31h543.93c71.95,0,130.91,58.98,130.91,131.13v289.48c0,71.95-58.96,130.95-130.91,130.95Z"/>
        <polyline class="cls-2" points="2798.85 621.04 2923.17 621.04 2923.17 1171.64 2798.85 1171.64"/>
        <polyline class="cls-2" points="2798.85 468.26 2923.17 468.26 2923.17 574.5 2798.85 574.5"/>
        <path class="cls-2" d="M2498.57,1009.21v-299.16h-393.86c-34.18,0-62.08,27.64-62.08,62.24v252.81c0,34,27.9,62,62.08,62h320.47c47.21-.34,73.29-24.65,73.39-77.9M2498.57,466.33h124.25v567.04c-.05,101.72-76.46,133.46-132.75,135.8h-451.27c-68.68,0-124.75-56.07-124.75-124.64v-291.73c0-68.86,56.07-125.16,124.75-125.16h459.77v-161.3Z"/>
        <path class="cls-1" d="M5500.9,625.18h-577.25c-71.99,0-130.84,57.73-130.84,128.55v66.3c.87,81.41,70.45,119.76,142.39,119.76h379.23c30.57,0,58.22,21.45,58.22,53.98v33.03c0,30.96-27.39,56.49-59.14,56.49l-475.88,1.57v84.3h529.8c72.18,0,130.94-57.87,130.94-128.44v-66.17c-.72-81.24-65.54-119.9-136.74-119.9h-381.95c-32.86,0-61.24-14.82-61.24-54.09v-32.71c0-31.33,22.37-56.81,54.02-56.81l528.45-1.42"/>
      </g>
    </g>
  </g>
</svg>